<svg width="1120" height="740" viewBox="0 0 1120 740" fill="none" xmlns="http://www.w3.org/2000/svg">
  <rect width="1120" height="740" rx="42" fill="url(#paint0_linear)" fill-opacity="0.72"/>
  <rect x="32" y="40" width="680" height="80" rx="18" fill="#101824" fill-opacity="0.75" stroke="rgba(255,255,255,0.08)"/>
  <rect x="32" y="140" width="680" height="400" rx="26" fill="#101824" fill-opacity="0.65" stroke="rgba(255,255,255,0.1)"/>
  <rect x="740" y="40" width="348" height="640" rx="26" fill="#101824" fill-opacity="0.65" stroke="rgba(255,255,255,0.1)"/>
  <rect x="64" y="180" width="612" height="72" rx="20" fill="#172231" fill-opacity="0.8"/>
  <rect x="64" y="272" width="612" height="72" rx="20" fill="#172231" fill-opacity="0.65"/>
  <rect x="64" y="364" width="612" height="72" rx="20" fill="#172231" fill-opacity="0.5"/>
  <rect x="64" y="456" width="612" height="72" rx="20" fill="#172231" fill-opacity="0.35"/>
  <rect x="772" y="92" width="284" height="96" rx="20" fill="#172231" fill-opacity="0.8"/>
  <rect x="772" y="212" width="284" height="128" rx="20" fill="#172231" fill-opacity="0.65"/>
  <rect x="772" y="360" width="284" height="128" rx="20" fill="#172231" fill-opacity="0.5"/>
  <rect x="772" y="508" width="284" height="128" rx="20" fill="#172231" fill-opacity="0.35"/>
  <circle cx="120" cy="80" r="26" fill="#7AF7F2" fill-opacity="0.6"/>
  <rect x="172" y="54" width="320" height="18" rx="9" fill="#E2E8F0" fill-opacity="0.6"/>
  <rect x="172" y="78" width="240" height="14" rx="7" fill="#94A3B8" fill-opacity="0.6"/>
  <rect x="804" y="116" width="72" height="72" rx="16" fill="#7BC8FF" fill-opacity="0.45"/>
  <rect x="892" y="126" width="140" height="14" rx="7" fill="#E2E8F0" fill-opacity="0.6"/>
  <rect x="892" y="150" width="96" height="12" rx="6" fill="#94A3B8" fill-opacity="0.6"/>
  <defs>
    <linearGradient id="paint0_linear" x1="120" y1="62" x2="1040" y2="678" gradientUnits="userSpaceOnUse">
      <stop stop-color="#111827"/>
      <stop offset="0.5" stop-color="#101522"/>
      <stop offset="1" stop-color="#0B1018"/>
    </linearGradient>
  </defs>
</svg>
